<?xml version="1.0" encoding="utf-8"?>
<!-- Generator: Adobe Illustrator 15.1.0, SVG Export Plug-In . SVG Version: 6.00 Build 0)  -->
<!DOCTYPE svg PUBLIC "-//W3C//DTD SVG 1.1//EN" "http://www.w3.org/Graphics/SVG/1.1/DTD/svg11.dtd">
<svg version="1.1" id="Layer_1" xmlns="http://www.w3.org/2000/svg" xmlns:xlink="http://www.w3.org/1999/xlink" x="0px" y="0px"
	 width="179px" height="49px" viewBox="0 0 179 49" enable-background="new 0 0 179 49" xml:space="preserve">
<g>
	<rect x="0.178" y="28" fill="#D12053" width="21" height="21"/>
	<rect x="23.178" y="19" fill="#B3C735" width="21" height="30"/>
	<rect x="46.178" y="10" fill="#00829B" width="21" height="39"/>
	<rect x="69.178" fill="#794795" width="21" height="49"/>
	<g>
		<g>
			<path fill="#FFFFFF" d="M7.326,44l-1.134-1.148V40.29h2.212v1.75h1.666v-7.308H9.244v-2.03h3.808v2.03h-0.798v8.122L11.106,44
				H7.326z"/>
		</g>
		<g>
			<path fill="#FFFFFF" d="M34.47,44.042h-3.318l-1.204-1.232v-8.12h-0.616v-1.946h3.038v1.946h-0.518v7.322h1.932V34.69h-0.546
				v-1.946h3.038v1.946h-0.588v8.116L34.47,44.042z"/>
		</g>
		<g>
			<path fill="#FFFFFF" d="M53.178,40.668h2.212v1.372h2.548v-2.73h-3.699l-1.061-1.038v-4.574l1.036-0.996h4.816l1.162,1.153v2.179
				h-2.254v-1.302H55.39v2.548h3.724l1.036,1.036v4.62L59.072,44h-4.676l-1.218-1.204V40.668z"/>
		</g>
		<g>
			<path fill="#FFFFFF" d="M80.736,44H76.97v-1.974h0.742v-7.322h-0.714v1.358h-1.82v-3.318h7.308v3.318h-1.82v-1.358h-0.714v7.322
				h0.784V44z"/>
		</g>
	</g>
	<g>
		<path fill="#1E1E1E" d="M105.314,39.324v2.702h0.798V44h-3.836l0.028-1.974h0.797v-7.322h-0.797v-2.002h3.808v2.002h-0.798v2.548
			h2.002v-2.548h-0.826v-2.002h3.822v2.002h-0.784v4.601v2.721h0.784V44h-3.822v-1.974h0.826v-2.702H105.314z"/>
	</g>
	<g>
		<path fill="#1E1E1E" d="M126.088,44l-0.91-0.909v-9.299l1.078-1.09h4.648l1.064,1.048v9.201L130.932,44H126.088z M129.756,34.732
			h-2.365v7.308h2.365V34.732z"/>
	</g>
	<g>
		<path fill="#1E1E1E" d="M149.178,40.668h2.213v1.372h2.547v-2.73h-3.698l-1.062-1.038v-4.574l1.037-0.996h4.815l1.162,1.153v2.179
			h-2.255v-1.302h-2.547v2.548h3.724l1.036,1.036v4.62L155.072,44h-4.676l-1.219-1.204V40.668z"/>
	</g>
	<g>
		<path fill="#1E1E1E" d="M176.736,44h-3.766v-1.974h0.742v-7.322h-0.715v1.358h-1.82v-3.318h7.309v3.318h-1.82v-1.358h-0.714v7.322
			h0.784V44z"/>
	</g>
</g>
</svg>
