<svg xmlns="http://www.w3.org/2000/svg" width="179" height="49"><rect x=".178" y="28" fill="#D12053" width="21" height="21"/><rect x="23.178" y="19" fill="#B3C735" width="21" height="30"/><rect x="46.178" y="10" fill="#00829B" width="21" height="39"/><rect x="69.178" fill="#794795" width="21" height="49"/><path fill="#fff" d="M7.326 44l-1.134-1.148v-2.562h2.212v1.75h1.666v-7.308h-.826v-2.03h3.808v2.03h-.798v8.122l-1.148 1.146h-3.78z"/><path fill="#fff" d="M34.47 44.042h-3.318l-1.204-1.232v-8.12h-.616v-1.946h3.038v1.946h-.518v7.322h1.932v-7.322h-.546v-1.946h3.038v1.946h-.588v8.116l-1.218 1.236z"/><path fill="#fff" d="M53.178 40.668h2.212v1.372h2.548v-2.73h-3.699l-1.061-1.038v-4.574l1.036-.996h4.816l1.162 1.153v2.179h-2.254v-1.302h-2.548v2.548h3.724l1.036 1.036v4.62l-1.078 1.064h-4.676l-1.218-1.204v-2.128z"/><path fill="#fff" d="M80.736 44h-3.766v-1.974h.742v-7.322h-.714v1.358h-1.82v-3.318h7.308v3.318h-1.82v-1.358h-.714v7.322h.784v1.974z"/><path fill="#1E1E1E" d="M105.314 39.324v2.702h.798v1.974h-3.836l.028-1.974h.797v-7.322h-.797v-2.002h3.808v2.002h-.798v2.548h2.002v-2.548h-.826v-2.002h3.822v2.002h-.784v7.322h.784v1.974h-3.822v-1.974h.826v-2.702h-2.002z"/><path fill="#1E1E1E" d="M126.088 44l-.91-.909v-9.299l1.078-1.09h4.648l1.064 1.048v9.201l-1.036 1.049h-4.844zm3.668-9.268h-2.365v7.308h2.365v-7.308z"/><path fill="#1E1E1E" d="M149.178 40.668h2.213v1.372h2.547v-2.73h-3.698l-1.062-1.038v-4.574l1.037-.996h4.815l1.162 1.153v2.179h-2.255v-1.302h-2.547v2.548h3.724l1.036 1.036v4.62l-1.078 1.064h-4.676l-1.219-1.204v-2.128z"/><path fill="#1E1E1E" d="M176.736 44h-3.766v-1.974h.742v-7.322h-.715v1.358h-1.82v-3.318h7.309v3.318h-1.82v-1.358h-.714v7.322h.784v1.974z"/></svg>